<?xml version="1.0" standalone="no"?>
<!DOCTYPE svg PUBLIC "-//W3C//DTD SVG 20010904//EN"
 "http://www.w3.org/TR/2001/REC-SVG-20010904/DTD/svg10.dtd">
<svg version="1.0" xmlns="http://www.w3.org/2000/svg"
 width="201.000000pt" height="84.000000pt" viewBox="0 0 201.000000 84.000000"
 preserveAspectRatio="xMidYMid meet">

<g transform="translate(0.000000,84.000000) scale(0.100000,-0.100000)"
fill="#000000" stroke="none">
<path d="M881 644 c-34 -44 -61 -133 -74 -242 -11 -103 -12 -105 -43 -120 -41
-19 -80 -10 -86 20 -5 29 9 88 22 88 6 0 13 0 18 0 4 0 7 -10 7 -23 0 -33 33
-34 45 -1 15 39 -10 74 -53 74 -38 0 -69 -23 -91 -68 -22 -42 -36 -33 -29 18
4 31 2 41 -11 46 -32 12 -67 -6 -98 -54 -17 -26 -28 -39 -25 -30 3 9 9 33 13
52 6 34 4 36 -19 36 -28 0 -47 -38 -47 -96 0 -42 -42 -79 -71 -63 -23 12 -24
56 -4 149 22 99 20 110 -14 110 -28 0 -30 -3 -46 -72 -26 -110 -53 -167 -87
-184 -27 -14 -32 -14 -54 0 -72 48 -26 219 72 266 39 19 56 22 115 17 60 -5
70 -3 79 13 16 30 -13 43 -98 44 -94 1 -154 -25 -207 -87 -83 -96 -86 -260 -6
-301 49 -26 98 -21 133 14 34 34 38 36 38 16 0 -39 86 -60 127 -31 19 13 22
13 27 0 11 -30 44 -17 57 23 17 54 48 112 59 112 6 0 10 -15 10 -34 0 -36 12
-46 56 -46 13 0 24 -5 24 -10 0 -6 11 -22 25 -35 26 -27 73 -33 120 -15 18 7
31 6 45 -3 29 -18 48 -1 71 63 10 30 26 61 35 70 15 14 16 10 10 -43 -8 -74 3
-97 49 -97 53 0 131 83 97 104 -5 3 -22 -8 -37 -24 -45 -47 -59 -40 -50 23 15
94 13 112 -13 115 -32 5 -68 -21 -91 -66 -17 -31 -20 -34 -21 -14 0 13 17 44
39 70 72 87 99 170 71 223 -16 29 -64 25 -89 -7z m52 -38 c8 -21 -9 -74 -38
-121 -27 -45 -33 -30 -14 40 22 87 40 113 52 81z"/>
<path d="M1723 607 c-17 -19 -37 -60 -47 -95 -13 -49 -21 -61 -39 -64 -30 -4
-35 -38 -7 -45 29 -8 21 -37 -11 -41 -21 -2 -29 3 -39 28 -19 45 -40 52 -129
44 l-79 -6 14 53 c18 68 18 83 -1 119 -13 25 -22 30 -54 30 -46 0 -79 -31 -88
-83 -7 -47 1 -79 33 -116 l26 -31 -29 -41 c-15 -23 -41 -52 -56 -63 l-29 -21
-18 23 c-25 30 -34 128 -21 227 8 67 7 82 -5 95 -18 19 -46 4 -55 -31 -13 -45
-9 -252 5 -292 27 -75 72 -95 135 -63 33 17 84 73 106 116 12 23 23 30 44 30
28 0 28 -1 23 -48 -4 -41 0 -52 23 -80 46 -55 111 -39 160 40 6 8 24 18 41 21
29 5 32 3 37 -23 13 -62 92 -92 145 -54 20 14 24 14 44 0 26 -19 77 -21 111
-5 33 15 55 55 39 71 -9 9 -17 7 -35 -10 -23 -22 -71 -30 -81 -13 -3 5 5 11
17 15 47 11 77 45 77 85 0 46 -14 61 -59 61 -58 -1 -101 -47 -101 -109 0 -34
-36 -65 -67 -59 -24 5 -44 46 -41 88 3 34 4 35 50 38 46 3 75 22 63 42 -3 5
-17 10 -31 10 l-25 0 26 43 c60 103 1 197 -72 114z m50 -30 c6 -17 -18 -86
-37 -106 -14 -14 -16 -14 -16 0 0 8 7 39 15 67 16 51 28 64 38 39z m-439 -44
c0 -21 -4 -48 -8 -59 -7 -19 -8 -19 -22 0 -17 24 -18 78 -2 94 21 21 33 7 32
-35z m599 -169 c-6 -16 -35 -34 -53 -34 -15 0 -3 41 18 57 19 15 44 -1 35 -23z
m-419 -14 c19 -43 16 -67 -9 -76 -37 -14 -60 50 -35 97 15 28 24 24 44 -21z"/>
</g>
</svg>
